<svg width="187" height="185" viewBox="0 0 187 185" fill="none" xmlns="http://www.w3.org/2000/svg">
<g clip-path="url(#clip0_201_46)">
<rect width="186.043" height="184.798" rx="30" fill="white"/>
<path d="M45.4662 100.346C40.6662 100.947 32.2632 102.745 27.4622 106.947C13.0592 119.547 21.4612 141.746 50.8682 141.746C67.6712 141.746 84.4752 130.945 97.6782 114.145C78.4742 105.145 62.8702 98.544 45.4662 100.346Z" fill="#2BA6DF"/>
<path d="M153.036 115.796C180.042 124.796 186.043 125.396 186.043 125.396V29.398C186.043 13.199 172.84 0 156.037 0H30.007C13.803 0 0 13.2 0 29.4V155.4C0 171.599 13.203 184.798 30.007 184.798H156.037C172.24 184.798 186.043 171.598 186.043 155.398V154.199C186.043 154.199 138.033 134.4 113.427 122.4C97.224 142.199 76.219 154.798 54.014 154.798C16.806 154.798 4.203 122.4 22.207 101.4C25.807 96.6 32.409 92.4 42.611 90.001C58.215 86.4 83.421 92.4 106.826 100.201C111.026 92.4 114.627 84.001 117.028 75.001H44.412V67.801H81.62V53.402H36.01V46.202H81.62V27.603C81.62 27.603 81.62 24.603 84.62 24.603H102.625V46.803H147.635V53.404H102.625V66.603H139.233C135.633 81.002 130.231 94.203 123.629 105.601C135.632 109.801 145.834 113.402 153.036 115.8V115.796Z" fill="#2BA6DF"/>
</g>
<defs>
<clipPath id="clip0_201_46">
<rect width="186.043" height="184.798" rx="30" fill="white"/>
</clipPath>
</defs>
</svg>
