<svg width="16" height="16" viewBox="0 0 16 16" fill="none" xmlns="http://www.w3.org/2000/svg">
<path fill-rule="evenodd" clip-rule="evenodd" d="M14.5383 7.76916C14.5383 11.5077 11.5076 14.5384 7.76916 14.5384C4.03066 14.5384 1 11.5077 1 7.76916C1 4.03066 4.03066 1 7.76916 1C11.5076 1 14.5383 4.03066 14.5383 7.76916ZM10.8962 12.0105C10.0215 12.6565 8.93997 13.0384 7.76916 13.0384C6.5817 13.0384 5.48599 12.6456 4.60486 11.9828L6.38565 10.202C6.79369 10.4346 7.26591 10.5674 7.76916 10.5674C8.25538 10.5674 8.71263 10.4434 9.11102 10.2253L10.8962 12.0105ZM11.9645 10.9575C12.6383 10.0723 13.0383 8.96745 13.0383 7.76916C13.0383 6.58167 12.6455 5.48593 11.9827 4.6048L10.2019 6.38558C10.4345 6.79363 10.5673 7.26588 10.5673 7.76916C10.5673 8.28346 10.4286 8.76535 10.1865 9.17945L11.9645 10.9575ZM5.32814 9.13818L3.54583 10.9205C2.88896 10.0416 2.5 8.9508 2.5 7.76916C2.5 6.59836 2.88186 5.51674 3.52782 4.64206L5.31307 6.42731C5.09495 6.8257 4.97094 7.28295 4.97094 7.76916C4.97094 8.26647 5.10067 8.73347 5.32814 9.13818ZM6.35888 5.3518C6.77297 5.10969 7.25486 4.97095 7.76916 4.97095C8.26644 4.97095 8.73341 5.10066 9.1381 5.3281L10.9204 3.54578C10.0415 2.88894 8.95077 2.5 7.76916 2.5C6.57088 2.5 5.46602 2.89999 4.58082 3.57374L6.35888 5.3518ZM9.06738 7.76916C9.06738 8.48615 8.48615 9.06738 7.76916 9.06738C7.05218 9.06738 6.47094 8.48615 6.47094 7.76916C6.47094 7.05218 7.05218 6.47095 7.76916 6.47095C8.48615 6.47095 9.06738 7.05218 9.06738 7.76916Z" fill="white"/>
<path d="M7.76916 15.0384C11.7838 15.0384 15.0383 11.7838 15.0383 7.76916C15.0383 3.75451 11.7838 0.5 7.76916 0.5C3.75452 0.5 0.5 3.75452 0.5 7.76916C0.5 11.7838 3.75451 15.0384 7.76916 15.0384ZM9.0061 10.8274L10.1062 11.9275C9.41574 12.3165 8.61883 12.5384 7.76916 12.5384C6.90249 12.5384 6.09066 12.3076 5.39075 11.904L6.48628 10.8084C6.88104 10.9753 7.3148 11.0674 7.76916 11.0674C8.20595 11.0674 8.62371 10.9822 9.0061 10.8274ZM12.5383 7.76916C12.5383 8.64686 12.3016 9.46831 11.8884 10.1742L10.7958 9.08159C10.9705 8.679 11.0673 8.23493 11.0673 7.76916C11.0673 7.31478 10.9752 6.88099 10.8084 6.48621L11.904 5.39069C12.3076 6.09061 12.5383 6.90246 12.5383 7.76916ZM4.72317 9.03604L3.62608 10.1331C3.22763 9.43649 3 8.62989 3 7.76916C3 6.91949 3.22182 6.12257 3.61078 5.43212L4.71088 6.53223C4.55609 6.91461 4.47094 7.33238 4.47094 7.76916C4.47094 8.21741 4.56061 8.64559 4.72317 9.03604ZM7.76916 4.47095C7.30338 4.47095 6.85931 4.56777 6.45673 4.74254L5.36405 3.64987C6.07 3.2367 6.89147 3 7.76916 3C8.62986 3 9.43645 3.22761 10.1331 3.62603L9.03595 4.72314C8.64552 4.56061 8.21737 4.47095 7.76916 4.47095ZM8.56738 7.76916C8.56738 8.21001 8.21001 8.56738 7.76916 8.56738C7.32832 8.56738 6.97094 8.21001 6.97094 7.76916C6.97094 7.32833 7.32832 6.97095 7.76916 6.97095C8.21001 6.97095 8.56738 7.32832 8.56738 7.76916Z" stroke="black" stroke-opacity="0.5"/>
</svg>
